<?xml version="1.0" encoding="UTF-8" standalone="no"?>
<!-- Created with Inkscape (http://www.inkscape.org/) -->

<svg
   width="64pt"
   height="64pt"
   viewBox="0 0 22.577778 22.577778"
   version="1.1"
   id="svg831"
   inkscape:version="1.1.2 (b8e25be833, 2022-02-05)"
   sodipodi:docname="Export - Unblash - 64px.svg"
   inkscape:export-filename="E:\Project Design\TR Icon Design Project\Carlos - Icon Design Project\Done\Flat\15 - Cricket.png"
   inkscape:export-xdpi="576"
   inkscape:export-ydpi="576"
   xmlns:inkscape="http://www.inkscape.org/namespaces/inkscape"
   xmlns:sodipodi="http://sodipodi.sourceforge.net/DTD/sodipodi-0.dtd"
   xmlns="http://www.w3.org/2000/svg"
   xmlns:svg="http://www.w3.org/2000/svg"
   xmlns:rdf="http://www.w3.org/1999/02/22-rdf-syntax-ns#"
   xmlns:cc="http://creativecommons.org/ns#"
   xmlns:dc="http://purl.org/dc/elements/1.1/">
  <defs
     id="defs825">
    <pattern
       id="EMFhbasepattern"
       patternUnits="userSpaceOnUse"
       width="6"
       height="6"
       x="0"
       y="0" />
    <pattern
       id="EMFhbasepattern-9"
       patternUnits="userSpaceOnUse"
       width="6"
       height="6"
       x="0"
       y="0" />
    <pattern
       id="EMFhbasepattern-0"
       patternUnits="userSpaceOnUse"
       width="6"
       height="6"
       x="0"
       y="0" />
    <pattern
       id="EMFhbasepattern-7"
       patternUnits="userSpaceOnUse"
       width="6"
       height="6"
       x="0"
       y="0" />
    <pattern
       id="EMFhbasepattern-2"
       patternUnits="userSpaceOnUse"
       width="6"
       height="6"
       x="0"
       y="0" />
    <pattern
       id="EMFhbasepattern-98"
       patternUnits="userSpaceOnUse"
       width="6"
       height="6"
       x="0"
       y="0" />
    <pattern
       id="EMFhbasepattern-6"
       patternUnits="userSpaceOnUse"
       width="6"
       height="6"
       x="0"
       y="0" />
    <pattern
       id="EMFhbasepattern-01"
       patternUnits="userSpaceOnUse"
       width="6"
       height="6"
       x="0"
       y="0" />
    <pattern
       id="EMFhbasepattern-07"
       patternUnits="userSpaceOnUse"
       width="6"
       height="6"
       x="0"
       y="0" />
    <pattern
       id="EMFhbasepattern-8"
       patternUnits="userSpaceOnUse"
       width="6"
       height="6"
       x="0"
       y="0" />
    <pattern
       id="EMFhbasepattern-4"
       patternUnits="userSpaceOnUse"
       width="6"
       height="6"
       x="0"
       y="0" />
    <pattern
       id="EMFhbasepattern-40"
       patternUnits="userSpaceOnUse"
       width="6"
       height="6"
       x="0"
       y="0" />
    <pattern
       id="EMFhbasepattern-08"
       patternUnits="userSpaceOnUse"
       width="6"
       height="6"
       x="0"
       y="0" />
    <pattern
       id="EMFhbasepattern-04"
       patternUnits="userSpaceOnUse"
       width="6"
       height="6"
       x="0"
       y="0" />
    <pattern
       id="EMFhbasepattern-014"
       patternUnits="userSpaceOnUse"
       width="6"
       height="6"
       x="0"
       y="0" />
    <pattern
       id="EMFhbasepattern-27"
       patternUnits="userSpaceOnUse"
       width="6"
       height="6"
       x="0"
       y="0" />
    <pattern
       id="EMFhbasepattern-09"
       patternUnits="userSpaceOnUse"
       width="6"
       height="6"
       x="0"
       y="0" />
    <pattern
       id="EMFhbasepattern-5"
       patternUnits="userSpaceOnUse"
       width="6"
       height="6"
       x="0"
       y="0" />
    <pattern
       id="EMFhbasepattern-018"
       patternUnits="userSpaceOnUse"
       width="6"
       height="6"
       x="0"
       y="0" />
  </defs>
  <sodipodi:namedview
     id="base"
     pagecolor="#ffffff"
     bordercolor="#666666"
     borderopacity="1.0"
     inkscape:pageopacity="0.0"
     inkscape:pageshadow="2"
     inkscape:zoom="4.9552717"
     inkscape:cx="44.498065"
     inkscape:cy="42.177304"
     inkscape:document-units="pt"
     inkscape:current-layer="layer1"
     showgrid="false"
     units="pt"
     inkscape:window-width="958"
     inkscape:window-height="1041"
     inkscape:window-x="-7"
     inkscape:window-y="0"
     inkscape:window-maximized="0"
     inkscape:pagecheckerboard="true"
     inkscape:showpageshadow="false"
     inkscape:object-paths="true"
     inkscape:snap-intersection-paths="true"
     inkscape:snap-smooth-nodes="true"
     inkscape:snap-midpoints="true"
     showguides="true"
     inkscape:snap-bbox="true"
     inkscape:bbox-nodes="true"
     inkscape:snap-nodes="false"
     inkscape:snap-global="true"
     inkscape:snap-others="false">
    <inkscape:grid
       type="xygrid"
       id="grid1378" />
    <sodipodi:guide
       position="0.97013831,21.607643"
       orientation="78.000048,0"
       id="guide1380"
       inkscape:locked="false" />
    <sodipodi:guide
       position="0.97013831,0.97013129"
       orientation="0,78.000005"
       id="guide1382"
       inkscape:locked="false" />
    <sodipodi:guide
       position="21.607639,0.97013129"
       orientation="-78.000048,0"
       id="guide1384"
       inkscape:locked="false" />
    <sodipodi:guide
       position="21.607639,21.607643"
       orientation="0,-78.000005"
       id="guide1386"
       inkscape:locked="false" />
  </sodipodi:namedview>
  <metadata
     id="metadata828">
    <rdf:RDF>
      <cc:Work
         rdf:about="">
        <dc:format>image/svg+xml</dc:format>
        <dc:type
           rdf:resource="http://purl.org/dc/dcmitype/StillImage" />
      </cc:Work>
    </rdf:RDF>
  </metadata>
  <g
     inkscape:label="Icon"
     inkscape:groupmode="layer"
     id="layer1"
     transform="translate(0,-274.42223)">
    <g
       id="g508491"
       style="display:inline;stroke-width:0.794523"
       transform="matrix(1.2586163,0,0,1.2586163,-76.039676,-77.132269)">
      <g
         id="g469703"
         style="stroke-width:0.794523">
        <g
           id="g469362"
           transform="matrix(1.0684331,0,0,1.0684331,-4.681775,-19.656939)"
           style="stroke-width:0.743634">
          <path
             style="color:#000000;fill:#ececec;fill-opacity:1;stroke-width:0.743634;stroke-linecap:round;stroke-linejoin:round;-inkscape-stroke:none"
             d="m 62.985186,290.36425 c -0.244054,-0.061 -0.401885,-0.28911 -0.373047,-0.53906 l 0.830078,-7.1875 2.595703,-2.01953 h 4.751954 l 2.595703,2.01953 0.458259,6.83892 c 0.02884,0.24996 -0.128945,0.47804 -0.373047,0.53906 l -1.428962,0.7978 c -0.118489,0.0293 -0.201595,0.13576 -0.201172,0.25781 v 2.44922 c 10e-7,0.19526 -0.152397,0.34766 -0.347656,0.34766 h -6.158204 c -0.195258,0 -0.347656,-0.1524 -0.347656,-0.34766 v -2.65739 z"
             id="path7747"
             sodipodi:nodetypes="ccccccccccsssscc" />
          <path
             id="path226240"
             style="color:#000000;fill:#cccccc;fill-opacity:1;stroke-width:0.743634;stroke-linecap:round;stroke-linejoin:round;-inkscape-stroke:none"
             d="m 74.215548,289.2556 -0.829924,-6.61781 -2.595705,-2.01952 -0.529162,0.52917 2.595706,2.01952 0.829924,6.6178 z"
             sodipodi:nodetypes="ccccccc" />
          <path
             id="path7947"
             style="color:#000000;fill:#b2b2b2;fill-opacity:1;stroke-width:0.743634;stroke-linecap:round;stroke-linejoin:round;-inkscape-stroke:none"
             d="m 66.037759,280.61828 -0.122473,0.0951 0.923457,1.03973 a 0.26460996,0.26460996 0 0 0 0.197405,0.0899 h 2.722314 a 0.26460996,0.26460996 0 0 0 0.195337,-0.0863 l 0.956529,-1.0449 -0.120404,-0.0935 z" />
          <path
             style="color:#000000;fill:#9ccc65;fill-opacity:1;stroke-width:0.196753;stroke-linecap:round;stroke-linejoin:round;-inkscape-stroke:none"
             d="m 64.854509,290.40526 c 0.983006,0.1606 1.80161,0.26259 2.804855,0.29714 0.0031,5e-5 0.0062,5e-5 0.0093,0 l 1.47071,10e-4 c 0.0029,5e-5 0.0059,5e-5 0.0088,0 0.979472,-0.0318 1.886903,-0.12937 2.886959,-0.29869 l -0.08786,-1.43294 c -0.976323,0.1653 -1.860642,0.25992 -2.816679,0.29094 l -1.452624,-0.001 c -0.979636,-0.0337 -1.775628,-0.13222 -2.737677,-0.28939 z"
             id="path43092"
             sodipodi:nodetypes="ccccccccccc" />
          <path
             id="path209198"
             style="color:#000000;fill:#5f8a2e;fill-opacity:1;stroke-width:0.196753;stroke-linecap:round;stroke-linejoin:round;-inkscape-stroke:none"
             d="m 67.01341,289.2286 c -0.232813,0.29845 -0.372071,0.67266 -0.372071,1.07694 0,0.23392 0.04682,0.45768 0.131257,0.66249 0.294744,0.0218 0.590228,0.0378 0.886767,0.0481 a 0.2646098,0.2646098 0 0 0 0.0093,0 l 1.47071,0.001 a 0.2646098,0.2646098 0 0 0 0.0088,0 c 0.28996,-0.009 0.580655,-0.0244 0.872297,-0.0455 0.08538,-0.2058 0.13281,-0.43082 0.13281,-0.66611 0,-0.40296 -0.138565,-0.77587 -0.370004,-1.07384 -0.218032,0.0137 -0.435644,0.024 -0.652674,0.031 l -1.452623,-10e-4 c -0.222081,-0.008 -0.443429,-0.0188 -0.664559,-0.0331 z" />
          <path
             style="color:#000000;fill:#badb94;fill-opacity:1;stroke-width:0.743634;stroke-linecap:round;stroke-linejoin:round;-inkscape-stroke:none"
             d="m 66.966289,292.41424 1.216697,-1.22832 -0.863151,-0.70905 -1.140625,1.12705 z"
             id="path43284"
             sodipodi:nodetypes="ccccc" />
          <path
             id="path20087"
             style="color:#000000;fill:#cccccc;fill-opacity:1;stroke-width:0.743634;stroke-linecap:round;stroke-linejoin:round;-inkscape-stroke:none"
             d="m 66.054191,280.81546 -1.145047,0.6808 2.439128,2.74505 c 0.105342,0.11942 0.291533,0.11942 0.396875,0 l 0.752517,-0.80916 z"
             sodipodi:nodetypes="cccccc" />
          <path
             id="path224595"
             style="color:#000000;fill:#b2b2b2;fill-opacity:1;stroke-width:0.743634;stroke-linecap:round;stroke-linejoin:round;-inkscape-stroke:none"
             d="m 67.903701,282.77451 -0.901095,0.92875 0.329234,0.42302 c 0.105342,0.11942 0.291533,0.11942 0.396875,0 l 0.719653,-0.82559 z"
             sodipodi:nodetypes="cccccc" />
          <path
             id="path20882"
             style="color:#000000;fill:#cccccc;fill-opacity:1;stroke-width:0.743634;stroke-linecap:round;stroke-linejoin:round;-inkscape-stroke:none"
             d="m 70.65203,280.81546 -5.813594,6.33419 0.09851,1.96972 6.847446,-7.58828 z"
             sodipodi:nodetypes="ccccc" />
          <path
             style="color:#000000;fill:#badb94;fill-opacity:1;stroke-width:0.743634;stroke-linecap:round;stroke-linejoin:round;-inkscape-stroke:none"
             d="m 70.601512,291.54159 -1.089944,-1.09961 -0.93482,0.76715 1.249303,1.16797 z"
             id="path43290"
             sodipodi:nodetypes="ccccc" />
          <path
             style="color:#000000;fill:#74a838;fill-opacity:1;stroke-width:0.743634;stroke-linecap:round;stroke-linejoin:round;-inkscape-stroke:none"
             d="m 68.397298,289.06072 c -0.734929,0 -1.022214,0.51001 -1.022214,1.24494 0,0.73493 0.287285,0.74335 1.022214,0.74335 0.73493,0 1.045454,-0.19433 1.045454,-0.92926 0,-0.73493 -0.310524,-1.05903 -1.045454,-1.05903 z"
             id="path43298"
             sodipodi:nodetypes="sssss" />
        </g>
        <g
           id="g469368"
           transform="translate(-5.2916667)"
           style="stroke-width:0.794523">
          <path
             style="color:#000000;fill:#3a4d5c;fill-opacity:1;stroke-width:0.794523;stroke-linecap:round;stroke-linejoin:round;-inkscape-stroke:none"
             d="m 80.190919,288.3955 a 0.26460996,0.26460996 0 0 0 -0.361329,0.0977 l -0.529296,0.91601 a 0.26460996,0.26460996 0 0 0 0.09766,0.36133 l 1.373047,0.79492 c 0.376926,0.21765 0.868305,0.0859 1.085937,-0.29101 0.21763,-0.37694 0.08592,-0.86636 -0.291015,-1.08399 z"
             id="path28899" />
          <path
             style="color:#000000;fill:#3a4d5c;fill-opacity:1;stroke-width:0.794523;stroke-linecap:round;stroke-linejoin:round;-inkscape-stroke:none"
             d="m 80.4292,286.3955 c -0.250379,-0.14463 -0.578096,-0.057 -0.722656,0.19336 l -5.027344,8.70703 c -0.217618,0.37693 -0.08591,0.86636 0.291015,1.08399 0.376933,0.21761 0.866362,0.0879 1.083985,-0.28907 l 5.027344,-8.70703 c 0.144545,-0.25036 0.05693,-0.57807 -0.19336,-0.72265 z"
             id="rect30837" />
        </g>
      </g>
      <path
         id="path431759"
         style="color:#000000;fill:#000000;stroke-width:0.794523;stroke-linecap:round;stroke-linejoin:round;-inkscape-stroke:none"
         d="m 65.958878,280.08956 c -0.05833,0 -0.112188,0.0193 -0.157122,0.0507 -0.921309,0.71565 -1.835957,1.4273 -2.75122,2.1394 -0.06334,0.0539 -0.102238,0.11692 -0.112699,0.18655 l -0.841809,7.29878 c -0.05883,0.50985 0.273624,0.98916 0.77153,1.11363 l 1.599904,0.39894 v 2.24328 c -3e-6,0.48124 0.395703,0.87694 0.876948,0.87694 h 3.857128 c 0.145319,-5.5e-4 0.262985,-0.11823 0.263551,-0.26354 5.29e-4,-0.14613 -0.117425,-0.26505 -0.263551,-0.26562 H 65.34441 c -0.195257,0 -0.347784,-0.15252 -0.347782,-0.34778 9.3e-5,-0.9168 0,-1.83632 0,-2.75126 0.307788,0.0473 0.615226,0.0882 0.921907,0.12248 0.145655,0.0166 0.277056,-0.0884 0.293005,-0.2341 0.01569,-0.14526 -0.08935,-0.27575 -0.234612,-0.29145 -0.326218,-0.0365 -0.652888,-0.0807 -0.9803,-0.1323 2.65e-4,-0.23154 0,-0.45971 0,-0.69039 0.724012,0.10873 1.453164,0.18404 2.18798,0.22479 -0.07291,0.16483 -0.113688,0.34654 -0.113688,0.53743 0,0.0625 0.0045,0.12418 0.01291,0.18449 l -1.046448,1.04438 c -0.241202,0.24121 -0.241202,0.64142 0,0.88263 l 0.359667,0.3576 c 0.241207,0.24121 0.63936,0.24121 0.880567,0 l 1.129131,-1.12913 1.091922,1.09193 c 0.262615,0.26261 0.695981,0.26261 0.958599,0 l 0.281635,-0.28319 c 0.262615,-0.26262 0.262615,-0.69649 0,-0.95911 l -1.008673,-1.00718 c 0.0082,-0.0596 0.01241,-0.12059 0.01241,-0.18242 0,-0.18967 -0.0401,-0.37033 -0.112139,-0.53433 0.747771,-0.0405 1.501553,-0.11939 2.26136,-0.23978 0.04989,0.0519 0.118737,0.0811 0.190685,0.0811 0.145521,-5.5e-4 0.263268,-0.11854 0.263551,-0.26406 v -3.68505 c 0.0056,-0.0763 -0.02209,-0.15133 -0.07596,-0.20567 l -0.529167,-0.52917 c -0.103439,-0.10399 -0.271732,-0.10399 -0.375171,0 -0.102613,0.1032 -0.102613,0.2699 0,0.37311 l 0.451136,0.45113 v 3.25458 c -0.868286,0.1378 -1.728587,0.22019 -2.580722,0.25167 -0.228227,-0.18203 -0.516718,-0.29146 -0.829406,-0.29146 -0.312282,0 -0.600286,0.10934 -0.828373,0.29094 -0.800804,-0.0316 -1.595363,-0.10729 -2.384351,-0.22221 l 6.701917,-7.53959 1.318266,1.02474 -0.582912,0.58291 c -0.103989,0.10344 -0.103989,0.27174 0,0.37517 0.103203,0.10262 0.269902,0.10262 0.373105,0 l 0.40876,-0.40979 0.360701,3.13624 c 0.01669,0.14602 0.149201,0.25044 0.295074,0.23255 0.145103,-0.0167 0.249195,-0.1479 0.232542,-0.29301 l -0.425817,-3.67988 c -0.01175,-0.0802 -0.05763,-0.13926 -0.0998,-0.17776 -0.918575,-0.71505 -1.837248,-1.42968 -2.755839,-2.14458 -0.04348,-0.041 -0.111909,-0.0548 -0.181129,-0.0548 -1.628584,5.1e-4 -3.254327,5.1e-4 -4.880068,5.1e-4 z m 0.5886,0.52917 h 3.719153 l -0.617532,0.69505 h -2.48357 z m -0.622699,0.0951 c 0.709869,0.79889 1.418775,1.59629 2.128552,2.39521 l -0.496094,0.55862 -2.220537,-2.49597 z m 4.96507,0.001 0.587045,0.4563 -6.480223,7.29206 v -1.11879 c 1.964425,-2.21019 3.930369,-4.42155 5.893178,-6.62957 z m -5.971212,0.78186 2.283582,2.57039 -2.205548,2.48202 v -0.79375 l 0.453202,-0.4532 c 0.102613,-0.10321 0.102613,-0.2699 0,-0.37311 -0.103439,-0.10399 -0.271732,-0.10399 -0.375171,0 l -0.525034,0.52504 c -0.05483,0.0548 -0.08218,0.11689 -0.08218,0.19016 v 3.86075 l -1.757,-0.44804 0.690914,-5.98568 0.407726,0.40876 c 0.103439,0.10399 0.271732,0.10399 0.375171,0 0.103989,-0.10344 0.103989,-0.27173 0,-0.37517 l -0.583427,-0.58291 z m 2.718181,0.34675 h 1.541508 l -0.770496,0.86713 z m 6.787701,4.74597 -5.027602,8.70696 c -0.217618,0.37693 -0.08599,0.86654 0.290938,1.08417 0.376933,0.21761 0.86655,0.0876 1.084173,-0.28939 l 3.572909,-6.18773 1.144114,0.66249 c 0.376928,0.21765 0.86809,0.086 1.085723,-0.29094 0.217631,-0.37694 0.086,-0.86654 -0.290938,-1.08417 l -1.145149,-0.66198 0.66094,-1.14463 c 0.144545,-0.25036 0.0565,-0.57786 -0.193786,-0.72244 l -0.458885,-0.26561 c -0.326435,-0.16918 -0.607669,-0.006 -0.722437,0.19327 z m 0.458885,0.26561 0.456819,0.26355 -5.027083,8.70697 c -0.07463,0.12925 -0.231958,0.17224 -0.361217,0.0977 -0.129265,-0.0746 -0.170755,-0.23194 -0.09612,-0.36121 z m -0.0098,2.13321 1.144633,0.66145 c 0.129275,0.0746 0.172304,0.23246 0.09767,0.36174 -0.07463,0.12925 -0.231957,0.17024 -0.361219,0.0956 l -1.145667,-0.66094 z m -5.658051,1.31775 c 0,0.44895 -0.359789,0.80666 -0.808736,0.80666 -0.448948,0 -0.8401,-0.31722 -0.80667,-0.80666 0.03343,-0.48945 0.36603,-0.80822 0.796076,-0.80822 0.430046,0 0.81933,0.35927 0.81933,0.80822 z m -6.566525,-0.71779 1.818495,0.46405 v 0.67955 l -1.47278,-0.3669 c -0.244104,-0.061 -0.401944,-0.28955 -0.373104,-0.53951 z m 8.170043,0.7767 c -0.145103,0.0167 -0.249195,0.14789 -0.232543,0.293 0.01598,0.14483 0.146045,0.24949 0.290939,0.2341 0.208423,-0.023 0.417462,-0.0494 0.625284,-0.078 0.145109,-0.0198 0.24656,-0.15364 0.226344,-0.29868 -0.01738,-0.12212 -0.116864,-0.21602 -0.269235,-0.22557 -0.232725,0.0288 -0.437282,0.0528 -0.640789,0.0752 z m -1.292942,0.66817 0.837673,0.83768 c 0.06039,0.0604 0.06039,0.15044 0,0.21084 l -0.28112,0.28112 c -0.06039,0.0604 -0.150444,0.0604 -0.210838,0 l -0.86455,-0.86403 c 0.210854,-0.10699 0.3902,-0.26867 0.518832,-0.46561 z m -2.238624,5.3e-4 c 0.128908,0.19723 0.309028,0.35869 0.520382,0.46561 l -0.902787,0.90278 c -0.03899,0.039 -0.09589,0.039 -0.134877,0 l -0.3576,-0.35966 c -0.03898,-0.039 -0.03898,-0.0938 0,-0.13281 z"
         sodipodi:nodetypes="cccccccsscscsccccccccsccccsccccccsccccccccccccscccccccccccccccccccccccccccccccccccccccccccccccccccccccccccccccccccccccczsccczczzzcccccccccccccccccccccccccccccc" />
    </g>
  </g>
</svg>
